<svg xmlns="http://www.w3.org/2000/svg" viewBox="0 0 1200 630">
  <defs>
    <linearGradient id="bg" x1="0" y1="0" x2="1" y2="1">
      <stop offset="0%" stop-color="#f9fafb" />
      <stop offset="100%" stop-color="#f0fdf4" />
    </linearGradient>
  </defs>

  <rect width="1200" height="630" fill="url(#bg)" />

  <!-- Card -->
  <rect x="160" y="95" width="880" height="440" rx="32" fill="#fff" stroke="#e2e8f0" stroke-width="1.5" />

  <!-- Icon grid mockup -->
  <rect x="230" y="170" width="96" height="96" rx="20" fill="#f1f5f9" />
  <rect x="350" y="170" width="96" height="96" rx="20" fill="#f1f5f9" />
  <rect x="470" y="170" width="96" height="96" rx="20" fill="#f1f5f9" />
  <rect x="590" y="170" width="96" height="96" rx="20" fill="#f1f5f9" />

  <!-- Icon placeholders (circles inside squares) -->
  <circle cx="278" cy="218" r="22" fill="#e2e8f0" />
  <circle cx="398" cy="218" r="22" fill="#d1d5db" />
  <circle cx="518" cy="218" r="22" fill="#cbd5e1" />
  <circle cx="638" cy="218" r="22" fill="#e2e8f0" />

  <!-- Question mark -->
  <text x="760" y="245" font-family="system-ui, -apple-system, sans-serif" font-size="96" font-weight="700" fill="#10b981" text-anchor="middle">?</text>

  <!-- Title -->
  <text x="230" y="350" font-family="system-ui, -apple-system, sans-serif" font-size="56" font-weight="700" fill="#0f172a" letter-spacing="-2">know-your-ai</text>

  <!-- Subtitle -->
  <text x="230" y="400" font-family="system-ui, -apple-system, sans-serif" font-size="24" fill="#64748b">Can you name every AI company by its logo?</text>

  <!-- Stats pill -->
  <rect x="230" y="440" width="180" height="44" rx="12" fill="#10b981" />
  <text x="320" y="470" font-family="system-ui, -apple-system, sans-serif" font-size="17" font-weight="600" fill="#fff" text-anchor="middle">58 AI logos</text>

  <!-- Difficulty pill -->
  <rect x="430" y="440" width="160" height="44" rx="12" fill="#f1f5f9" stroke="#e2e8f0" stroke-width="1" />
  <text x="510" y="470" font-family="system-ui, -apple-system, sans-serif" font-size="17" font-weight="500" fill="#475569" text-anchor="middle">3 to 5 choices</text>
</svg>
